<svg version="1" xmlns="http://www.w3.org/2000/svg" width="346.667" height="346.667" viewBox="0 0 260.000000 260.000000"><path d="M113.2 1C83.1 5.3 56.7 18.9 35.7 41 18.6 59 7.9 79.5 2.4 105.1c-2.6 11.8-2.6 38 0 49.8 5.9 27.3 16.7 47.4 36 66.7 19.3 19.3 39.4 30.1 66.7 36 11.8 2.6 38 2.6 49.8 0 27.3-5.9 47.4-16.7 66.7-36 19.3-19.3 30.1-39.4 36-66.7 1.4-6.2 1.8-12.7 1.8-24.9s-.4-18.7-1.8-24.9c-5.9-27.3-16.7-47.4-36-66.7-19-18.9-38.4-29.6-64.6-35.5C147.2.7 123-.4 113.2 1zm70.5 49.9c19.3 23.4 25.4 31.3 25 32.4-.7 1.6-28.3 35.3-29.7 36.2-.6.4-1.7.1-2.5-.5-1.2-1-1.5-3.8-1.5-12.1V96h-11.7c-6.5 0-13.5.5-15.6 1.1-8.3 2.3-13.7 11-23.2 37.4-12.6 35.1-22 49.1-36.4 54.6-4.4 1.7-8.5 2.2-19.1 2.6-7.4.2-14.1 0-14.8-.5-1-.7-1.3-4.1-1.3-12.5 0-6.4.2-12.1.6-12.7.4-.6 5.1-1 11.3-1 12.6 0 17.1-1.1 21.7-5.1 5.6-5 8.8-11.6 18.9-39.2 10.8-29.5 19.4-42.1 33.1-48.4 5.6-2.5 7.1-2.8 21.3-3.1l15.2-.4V58.1c0-10 .7-13.1 3.1-13.1.4 0 2.9 2.6 5.6 5.9zM90.2 72.8c6.8 3.3 15.3 11.4 18.4 17.4 1.4 2.8 1.3 3.3-2 11.1-1.9 4.5-4.5 10.9-5.7 14.1l-2.2 5.9-3.7-7.9c-4.4-9-9.7-15-14.9-16.4-2-.5-8.6-1-14.8-1-7.1 0-11.4-.4-11.9-1.1-.8-1.4-.7-23.6.2-25 .4-.8 5.4-1 15.3-.8 14.2.4 14.9.5 21.3 3.7zm48.3 84.6c4.4 5.7 10.4 7.6 24.4 7.6H175v-10.8c0-11.1.7-13.6 3.3-13 .8.1 6.8 6.8 13.2 14.8 6.4 8 13 15.9 14.6 17.5 1.6 1.7 2.9 3.6 2.9 4.3 0 .6-6.6 9.3-14.7 19.2-18.3 22.5-18.7 22.6-19.1 6.2l-.3-11.2h-10.2c-13 0-22.7-1.5-27.8-4.1-5.2-2.6-12.2-9.1-16.1-14.7-3.5-5.1-3.6-4.4 2.9-20.2 2.2-5.2 4.3-10.4 4.7-11.5.6-1.6 1.4-.7 4.1 5.2 1.8 4 4.5 8.8 6 10.7z"/></svg>