<svg version="1" xmlns="http://www.w3.org/2000/svg" width="346.667" height="346.667" viewBox="0 0 260.000000 260.000000"><path d="M113.2 1C83.1 5.3 56.7 18.9 35.7 41 18.6 59 7.9 79.5 2.4 105.1c-2.6 11.8-2.6 38 0 49.8 5.9 27.3 16.7 47.4 36 66.7 19.3 19.3 39.4 30.1 66.7 36 11.8 2.6 38 2.6 49.8 0 27.3-5.9 47.4-16.7 66.7-36 19.3-19.3 30.1-39.4 36-66.7 1.4-6.2 1.8-12.7 1.8-24.9s-.4-18.7-1.8-24.9c-5.9-27.3-16.7-47.4-36-66.7-19-18.9-38.4-29.6-64.6-35.5C147.2.7 123-.4 113.2 1zm81 74.7C202.4 83.8 209 91 209 91.5c0 1.4-29.3 30.5-30.7 30.5-2.3 0-3.2-2.9-3.5-10.9l-.3-8.3-13.9.1c-21.7.3-22.8 1.2-37.2 33.4-10.8 24-18.4 34.1-30.2 39.9-6.6 3.3-6.8 3.3-23.4 3.6l-16.7.4-.3-9.8c-.2-7.1.1-10.1 1-11.1 1-.9 4.8-1.3 13.8-1.3 14.2 0 17.3-.9 22.1-6.3 4.5-5.2 7.6-10.7 14.2-25.8 7.6-17.5 12.2-25 19.3-32.5 9.9-10.4 18.9-13.4 40-13.4H175v-8.8c0-4.9.3-9.2.7-9.5 1.8-1.9 5 .5 18.5 14zM82.5 81.1c7.7 1.4 14.6 5 20.7 10.7 7.6 7.1 7.6 6.6 1.1 19.6l-5.7 11.5-2.9-5.2c-3.2-5.9-7.9-11.2-11.9-13.3-1.9-1-6.4-1.4-15.5-1.4-7 0-13.4-.4-14.1-.9-1-.6-1.4-3.5-1.4-10.6s.4-10 1.4-10.6c1.9-1.2 21.4-1.1 28.3.2zm55.8 70.8c5.1 5.3 8 6.1 23.1 6.1h13.5l.3-9.2c.4-13.3.8-13.2 18.9 4.8 8.2 8.2 14.9 15.3 14.9 15.9 0 1.3-29.4 30.5-30.7 30.5-2.5 0-3.3-2.8-3.3-11.2v-8.7l-7.7.5c-10.9.8-25.2-1-31.8-4-5.3-2.4-14.7-10.2-16.6-13.8-.8-1.5.3-4.5 4.7-13.4l5.7-11.6 2.9 5.4c1.6 2.9 4.3 6.8 6.1 8.7z"/></svg>